<?xml version="1.0" standalone="no"?>
<!DOCTYPE svg PUBLIC "-//W3C//DTD SVG 20010904//EN"
 "http://www.w3.org/TR/2001/REC-SVG-20010904/DTD/svg10.dtd">
<svg version="1.0" xmlns="http://www.w3.org/2000/svg"
 width="64.000000pt" height="64.000000pt" viewBox="0 0 64.000000 64.000000"
 preserveAspectRatio="xMidYMid meet">

<g transform="translate(0.000000,64.000000) scale(0.100000,-0.100000)"
fill="#000000" stroke="none">
<path d="M239 574 c-50 -15 -127 -77 -158 -127 -11 -18 -25 -54 -32 -81 -11
-46 -11 -50 8 -66 11 -9 24 -32 28 -51 17 -83 81 -154 164 -184 194 -68 384
122 316 316 -30 83 -101 147 -185 164 -19 4 -41 16 -48 26 -15 22 -31 23 -93
3z m81 -84 c0 -76 -1 -80 -24 -86 -28 -7 -61 -40 -71 -71 -6 -21 -12 -23 -87
-23 l-80 0 7 37 c18 99 96 183 195 214 59 17 60 16 60 -71z m100 19 c60 -27
88 -54 116 -114 26 -54 30 -114 13 -164 l-11 -31 -50 28 c-49 28 -50 31 -52
78 -2 35 2 52 13 61 9 6 13 15 9 19 -4 4 -14 2 -21 -5 -11 -8 -24 -6 -55 12
-42 22 -42 22 -42 80 0 66 7 69 80 36z m-29 -148 c20 -20 29 -39 29 -61 0 -43
-47 -90 -90 -90 -43 0 -90 47 -90 90 0 43 47 90 90 90 22 0 41 -9 61 -29z
m-161 -102 c15 -36 63 -69 101 -69 14 0 42 11 61 24 l35 23 52 -27 53 -26 -28
-34 c-37 -43 -117 -80 -174 -80 -52 0 -134 35 -167 71 -25 28 -62 106 -63 132
0 14 9 17 59 17 56 0 59 -1 71 -31z"/>
<path d="M225 526 c-42 -18 -96 -66 -89 -78 4 -5 18 1 33 15 14 14 41 32 59
41 17 9 32 21 32 26 0 12 2 12 -35 -4z"/>
<path d="M479 404 c-12 -14 -11 -16 5 -13 11 2 21 10 24 17 5 17 -13 15 -29
-4z"/>
<path d="M175 219 c-4 -6 -5 -13 -2 -16 7 -7 27 6 27 18 0 12 -17 12 -25 -2z"/>
<path d="M201 186 c-7 -8 -8 -17 -3 -20 6 -3 15 1 21 8 7 8 8 17 3 20 -6 3
-15 -1 -21 -8z"/>
<path d="M235 159 c-4 -6 -5 -13 -2 -16 7 -7 27 6 27 18 0 12 -17 12 -25 -2z"/>
<path d="M276 134 c-4 -10 -1 -14 6 -12 15 5 23 28 10 28 -5 0 -13 -7 -16 -16z"/>
<path d="M320 130 c0 -11 5 -20 10 -20 6 0 10 9 10 20 0 11 -4 20 -10 20 -5 0
-10 -9 -10 -20z"/>
</g>
</svg>
