<?xml version="1.0" standalone="no"?>
<!DOCTYPE svg PUBLIC "-//W3C//DTD SVG 20010904//EN"
 "http://www.w3.org/TR/2001/REC-SVG-20010904/DTD/svg10.dtd">
<svg version="1.0" xmlns="http://www.w3.org/2000/svg"
 width="64.000000pt" height="64.000000pt" viewBox="0 0 64.000000 64.000000"
 preserveAspectRatio="xMidYMid meet">

<g transform="translate(0.000000,64.000000) scale(0.100000,-0.100000)"
fill="#000000" stroke="none">
<path d="M402 494 c-29 -7 -62 -18 -72 -24 -12 -7 -27 -7 -45 0 -29 11 -147
13 -183 4 -22 -6 -22 -8 -22 -181 l0 -175 23 7 c12 4 58 9 103 12 67 4 83 3
95 -11 34 -40 40 -45 54 -40 21 9 19 32 -5 46 -18 12 -20 24 -20 145 0 82 -4
133 -10 133 -6 0 -10 -49 -10 -128 l0 -127 -75 3 c-41 2 -88 -1 -105 -6 l-31
-11 3 157 3 157 70 3 c39 2 86 -1 106 -7 30 -9 44 -8 81 9 25 11 70 22 102 26
l57 7 -3 -133 -3 -134 -45 -11 c-55 -14 -110 -42 -110 -55 0 -6 31 -10 70 -10
39 0 86 -6 105 -14 18 -8 36 -12 39 -8 11 10 7 302 -4 302 -6 0 -10 -54 -10
-141 0 -140 0 -140 -22 -133 -12 4 -45 10 -73 14 l-50 7 63 18 62 18 0 149 0
148 -42 -1 c-24 0 -67 -7 -96 -15z"/>
</g>
</svg>
