<?xml version="1.0" standalone="no"?>
<!DOCTYPE svg PUBLIC "-//W3C//DTD SVG 20010904//EN"
 "http://www.w3.org/TR/2001/REC-SVG-20010904/DTD/svg10.dtd">
<svg version="1.0" xmlns="http://www.w3.org/2000/svg"
 width="50.000000pt" height="50.000000pt" viewBox="0 0 50.000000 50.000000"
 preserveAspectRatio="xMidYMid meet">

<g transform="translate(0.000000,50.000000) scale(0.100000,-0.100000)"
fill="#000000" stroke="none">
<path d="M155 485 c-22 -8 -41 -15 -42 -15 -7 0 -23 -90 -32 -180 -10 -96 -9
-106 7 -120 10 -8 28 -36 41 -62 29 -60 82 -108 121 -108 39 0 92 48 121 108
13 26 31 54 41 62 16 14 17 24 7 120 -14 144 -23 174 -56 190 -43 20 -161 23
-208 5z m185 -18 c36 -13 40 -23 53 -122 l4 -40 -147 0 -147 0 4 40 c13 99 17
109 53 122 19 7 60 12 90 12 30 0 71 -5 90 -12z m9 -183 c26 -6 31 -11 31 -36
0 -17 4 -27 10 -23 20 12 22 -26 3 -48 -11 -12 -33 -46 -49 -76 -57 -108 -132
-105 -192 7 -17 32 -39 65 -47 72 -19 16 -19 40 0 40 10 0 15 10 15 29 0 23 5
31 23 34 36 7 172 8 206 1z"/>
<path d="M240 420 c0 -13 -7 -20 -20 -20 -11 0 -20 -4 -20 -10 0 -5 9 -10 20
-10 13 0 20 -7 20 -20 0 -11 5 -20 10 -20 6 0 10 9 10 20 0 13 7 20 20 20 11
0 20 5 20 10 0 6 -9 10 -20 10 -13 0 -20 7 -20 20 0 11 -4 20 -10 20 -5 0 -10
-9 -10 -20z"/>
</g>
</svg>
