<?xml version="1.0" standalone="no"?>
<!DOCTYPE svg PUBLIC "-//W3C//DTD SVG 20010904//EN"
 "http://www.w3.org/TR/2001/REC-SVG-20010904/DTD/svg10.dtd">
<svg version="1.0" xmlns="http://www.w3.org/2000/svg"
 width="100.000000pt" height="100.000000pt" viewBox="0 0 100.000000 100.000000"
 preserveAspectRatio="xMidYMid meet">

<g transform="translate(0.000000,100.000000) scale(0.100000,-0.100000)"
fill="#000000" stroke="none">
<path d="M370 780 c-152 -32 -268 -162 -245 -274 10 -46 51 -112 85 -136 33
-24 38 -54 19 -109 -9 -24 -9 -35 0 -44 16 -16 93 6 154 43 58 36 66 36 120 9
23 -12 69 -24 106 -27 45 -3 75 -12 99 -28 42 -29 103 -47 115 -35 5 5 5 29
-1 55 -9 44 -8 48 17 67 93 73 94 208 3 277 -19 15 -65 57 -101 93 -49 49 -81
71 -124 88 -67 25 -181 34 -247 21z m172 -21 c114 -24 206 -97 228 -180 35
-130 -96 -255 -278 -267 -60 -4 -84 -10 -108 -28 -31 -24 -104 -54 -131 -54
-10 0 -12 6 -7 23 26 77 23 89 -31 142 -89 87 -95 181 -18 266 79 87 215 125
345 98z m309 -206 c38 -40 49 -66 49 -113 0 -51 -20 -90 -64 -127 -34 -28 -35
-29 -24 -76 5 -27 8 -50 6 -53 -8 -7 -87 24 -118 46 -18 13 -44 20 -72 20 -25
0 -66 7 -93 16 l-48 17 74 19 c148 37 235 127 233 240 -1 64 7 65 57 11z"/>
<path d="M338 633 c29 -2 74 -2 100 0 26 2 2 3 -53 3 -55 0 -76 -1 -47 -3z"/>
<path d="M543 633 c15 -2 37 -2 50 0 12 2 0 4 -28 4 -27 0 -38 -2 -22 -4z"/>
<path d="M268 573 c17 -2 47 -2 65 0 17 2 3 4 -33 4 -36 0 -50 -2 -32 -4z"/>
<path d="M463 573 c37 -2 96 -2 130 0 34 2 4 3 -68 3 -72 0 -99 -1 -62 -3z"/>
<path d="M318 513 c46 -2 118 -2 160 0 42 1 5 3 -83 3 -88 0 -123 -2 -77 -3z"/>
<path d="M623 513 c15 -2 37 -2 50 0 12 2 0 4 -28 4 -27 0 -38 -2 -22 -4z"/>
<path d="M368 443 c45 -2 119 -2 165 0 45 1 8 3 -83 3 -91 0 -128 -2 -82 -3z"/>
</g>
</svg>
