<?xml version="1.0" standalone="no"?>
<!DOCTYPE svg PUBLIC "-//W3C//DTD SVG 20010904//EN"
 "http://www.w3.org/TR/2001/REC-SVG-20010904/DTD/svg10.dtd">
<svg version="1.0" xmlns="http://www.w3.org/2000/svg"
 width="48.000000pt" height="48.000000pt" viewBox="0 0 48.000000 48.000000"
 preserveAspectRatio="xMidYMid meet">

<g transform="translate(0.000000,48.000000) scale(0.100000,-0.100000)"
fill="#000000" stroke="none">
<path d="M83 395 c-7 -20 6 -34 16 -17 6 9 48 12 167 10 l159 -3 3 -128 c3
-153 -1 -158 -89 -109 -66 37 -80 38 -115 15 -25 -16 -26 -15 -54 15 -16 18
-34 32 -40 32 -16 0 -110 -103 -110 -120 0 -35 21 -40 186 -40 123 0 164 3
173 13 14 17 2 30 -14 17 -17 -14 -317 -9 -321 5 -2 6 17 33 41 60 l45 50 49
-55 c27 -30 52 -52 56 -48 4 4 2 15 -6 24 -11 14 -11 18 6 30 25 19 27 18 95
-16 110 -56 120 -46 120 121 0 103 -3 131 -16 143 -23 23 -342 24 -351 1z"/>
<path d="M32 338 c-15 -15 -17 -188 -2 -188 5 0 11 39 12 88 l3 87 160 0 160
0 3 -87 c1 -49 7 -88 12 -88 15 0 13 173 -2 188 -17 17 -329 17 -346 0z"/>
<path d="M260 285 c-15 -18 -10 -45 13 -59 34 -22 73 27 47 59 -16 19 -44 19
-60 0z m46 -16 c10 -17 -13 -36 -27 -22 -12 12 -4 33 11 33 5 0 12 -5 16 -11z"/>
</g>
</svg>
