<?xml version="1.0" standalone="no"?>
<!DOCTYPE svg PUBLIC "-//W3C//DTD SVG 20010904//EN"
 "http://www.w3.org/TR/2001/REC-SVG-20010904/DTD/svg10.dtd">
<svg version="1.0" xmlns="http://www.w3.org/2000/svg"
 width="48.000000pt" height="48.000000pt" viewBox="0 0 48.000000 48.000000"
 preserveAspectRatio="xMidYMid meet">

<g transform="translate(0.000000,48.000000) scale(0.100000,-0.100000)"
fill="#000000" stroke="none">
<path d="M56 401 c-11 -12 -16 -31 -14 -53 4 -42 21 -39 28 4 l5 33 165 0 165
0 3 -72 c2 -56 6 -73 17 -73 12 0 15 16 15 73 0 108 1 107 -202 107 -149 0
-167 -2 -182 -19z"/>
<path d="M156 338 c-13 -19 -14 -25 -2 -43 26 -39 76 -26 76 19 0 46 -48 62
-74 24z m44 -23 c0 -8 -4 -15 -9 -15 -13 0 -22 16 -14 24 11 11 23 6 23 -9z"/>
<path d="M46 273 c-3 -3 -6 -45 -6 -93 0 -116 5 -120 133 -120 89 0 98 -2 121
-25 29 -29 73 -42 88 -27 8 8 6 13 -8 18 -58 19 -84 48 -84 95 0 29 48 69 82
69 60 0 99 -78 63 -126 -19 -25 -19 -34 0 -34 24 0 49 62 41 102 -10 55 -47
83 -111 83 -30 0 -60 6 -67 13 -16 16 -33 15 -52 -4 -21 -20 -11 -37 14 -24
27 14 34 -3 15 -39 -8 -17 -15 -39 -15 -51 0 -20 -4 -21 -92 -18 -91 3 -93 4
-96 28 -2 18 8 35 36 63 l38 38 43 -51 c37 -44 61 -56 61 -30 0 14 -91 110
-105 110 -8 0 -28 -15 -44 -32 l-31 -33 0 42 c0 40 -10 60 -24 46z"/>
<path d="M355 140 c-3 -11 -13 -20 -21 -20 -19 0 -18 -5 11 -34 l25 -25 25 25
c29 29 30 34 11 34 -8 0 -18 9 -21 20 -3 11 -10 20 -15 20 -5 0 -12 -9 -15
-20z"/>
</g>
</svg>
